<svg width="42" height="34" viewBox="0 0 42 34" fill="none" xmlns="http://www.w3.org/2000/svg">
<path d="M28.5619 5.49317C28.5617 6.67776 28.0932 7.81425 27.2586 8.65489C25.3371 10.5921 23.4728 12.612 21.4785 14.4783C21.2558 14.6811 20.9638 14.7908 20.6627 14.7845C20.3615 14.7783 20.0743 14.6567 19.8602 14.4448L14.1156 8.65686C13.2805 7.81568 12.8119 6.67846 12.8119 5.49317C12.8119 4.30788 13.2805 3.17066 14.1156 2.32947C14.5322 1.90971 15.0279 1.57656 15.5739 1.34921C16.1199 1.12187 16.7055 1.00482 17.297 1.00482C17.8884 1.00482 18.474 1.12187 19.0201 1.34921C19.5661 1.57656 20.0617 1.90971 20.4784 2.32947L20.6871 2.54012L20.8958 2.32947C21.5212 1.69726 22.3206 1.26546 23.1923 1.08904C24.0639 0.912633 24.9684 0.99959 25.7904 1.33885C26.6125 1.6781 27.315 2.25431 27.8086 2.99411C28.3021 3.73392 28.5643 4.60385 28.5619 5.49317V5.49317Z" stroke="#E61D4E" stroke-width="1.5" stroke-linejoin="round"/>
<path d="M32.4993 32.5036L40.0276 24.9753C40.2491 24.754 40.3738 24.4538 40.3741 24.1406V13.801C40.3741 13.0178 40.0629 12.2667 39.5091 11.7129C38.9553 11.1591 38.2042 10.848 37.421 10.848V10.848C36.6378 10.848 35.8867 11.1591 35.3329 11.7129C34.7791 12.2667 34.468 13.0178 34.468 13.801V22.6601" stroke="#E61D4E" stroke-width="1.5" stroke-linecap="round" stroke-linejoin="round"/>
<path d="M32.4991 24.6288L34.1883 22.9397C34.277 22.8511 34.3474 22.7458 34.3954 22.6299C34.4433 22.5141 34.468 22.3898 34.4678 22.2644C34.4676 22.0874 34.4181 21.9139 34.3249 21.7634C34.2317 21.6129 34.0986 21.4912 33.9402 21.412L33.0681 20.9769C32.3292 20.6075 31.4929 20.4798 30.6774 20.6119C29.862 20.7441 29.1087 21.1293 28.5243 21.7132L26.7624 23.4752C26.0239 24.2134 25.6089 25.2147 25.6087 26.2589V32.5036M8.87479 32.5036L1.34649 24.9753C1.12491 24.754 1.00028 24.4538 1 24.1406V13.801C1 13.0178 1.31112 12.2667 1.86493 11.7129C2.41873 11.1591 3.16985 10.848 3.95304 10.848C4.73624 10.848 5.48736 11.1591 6.04116 11.7129C6.59497 12.2667 6.90609 13.0178 6.90609 13.801V22.6601" stroke="#E61D4E" stroke-width="1.5" stroke-linecap="round" stroke-linejoin="round"/>
<path d="M8.87489 24.6289L7.18574 22.9398C7.09709 22.8511 7.02677 22.7458 6.9788 22.6299C6.93084 22.5141 6.90616 22.3899 6.90619 22.2645V22.2645C6.90619 21.9042 7.11093 21.5754 7.4338 21.412L8.30593 20.977C9.0448 20.6075 9.88116 20.4798 10.6966 20.612C11.5121 20.7441 12.2653 21.1294 12.8497 21.7133L14.6117 23.4752C15.3501 24.2135 15.7651 25.2148 15.7653 26.259V32.5037" stroke="#E61D4E" stroke-width="1.5" stroke-linecap="round" stroke-linejoin="round"/>
</svg>
