<?xml version="1.0" encoding="UTF-8"?>
<!DOCTYPE svg PUBLIC "-//W3C//DTD SVG 1.1//EN" "http://www.w3.org/Graphics/SVG/1.1/DTD/svg11.dtd">
<!-- Creator: CorelDRAW 2020 (64-Bit) -->
<svg xmlns="http://www.w3.org/2000/svg" xml:space="preserve" width="4.107mm" height="5.557mm" version="1.1" style="shape-rendering:geometricPrecision; text-rendering:geometricPrecision; image-rendering:optimizeQuality; fill-rule:evenodd; clip-rule:evenodd"
viewBox="0 0 410.7 555.7"
 xmlns:xlink="http://www.w3.org/1999/xlink"
 xmlns:xodm="http://www.corel.com/coreldraw/odm/2003">
 <defs>
  <style type="text/css">
   <![CDATA[
    .fil0 {fill:#FEFEFE;fill-rule:nonzero}
   ]]>
  </style>
 </defs>
 <g id="Слой_x0020_1">
  <metadata id="CorelCorpID_0Corel-Layer"/>
  <path class="fil0" d="M119.77 1.58c5.92,-0.02 11.78,1.29 17.14,3.83 5.36,2.54 10.08,6.25 13.81,10.85l244.61 238.13c5.84,7.1 9.03,16.01 9.03,25.2 0,9.19 -3.19,18.1 -9.03,25.2l-251.36 238.13c-6.73,8.1 -16.41,13.2 -26.91,14.16 -10.49,0.97 -20.94,-2.27 -29.04,-9.01 -8.11,-6.73 -13.21,-16.41 -14.17,-26.91 -0.97,-10.49 2.27,-20.94 9.01,-29.05l230.32 -212.72 -224.37 -212.72c-4.85,-5.83 -7.94,-12.92 -8.88,-20.45 -0.95,-7.52 0.27,-15.16 3.53,-22 3.26,-6.85 8.41,-12.62 14.84,-16.63 6.44,-4.02 13.88,-6.1 21.47,-6.01z"/>
 </g>
</svg>
