<svg width="38" height="38" viewBox="0 0 38 38" fill="none" xmlns="http://www.w3.org/2000/svg">
<path d="M30.875 34.8334C31.5049 34.8334 32.109 34.5832 32.5544 34.1378C32.9998 33.6924 33.25 33.0883 33.25 32.4584C33.25 31.8285 32.9998 31.2244 32.5544 30.779C32.109 30.3336 31.5049 30.0834 30.875 30.0834C30.2451 30.0834 29.641 30.3336 29.1956 30.779C28.7502 31.2244 28.5 31.8285 28.5 32.4584C28.5 33.0883 28.7502 33.6924 29.1956 34.1378C29.641 34.5832 30.2451 34.8334 30.875 34.8334ZM15.0417 34.8334C15.6716 34.8334 16.2757 34.5832 16.7211 34.1378C17.1665 33.6924 17.4167 33.0883 17.4167 32.4584C17.4167 31.8285 17.1665 31.2244 16.7211 30.779C16.2757 30.3336 15.6716 30.0834 15.0417 30.0834C14.4118 30.0834 13.8077 30.3336 13.3623 30.779C12.9169 31.2244 12.6667 31.8285 12.6667 32.4584C12.6667 33.0883 12.9169 33.6924 13.3623 34.1378C13.8077 34.5832 14.4118 34.8334 15.0417 34.8334Z" fill="#E61D4E" stroke="#E61D4E" stroke-width="1.5" stroke-linecap="round" stroke-linejoin="round"/>
<path d="M31.6667 23.75H8.28085C5.45619 23.75 3.95835 24.9866 3.95835 26.9167C3.95835 28.8468 5.45619 30.0834 8.28085 30.0834H30.875M7.91669 6.33335H34.8334L31.6667 23.75H11.0834L7.91669 6.33335ZM7.91669 6.33335C7.65227 5.27727 6.33335 3.16669 3.16669 3.16669L7.91669 6.33335Z" stroke="#E61D4E" stroke-width="1.5" stroke-linecap="round" stroke-linejoin="round"/>
</svg>
