<svg width="38" height="38" viewBox="0 0 38 38" fill="none" xmlns="http://www.w3.org/2000/svg">
<path d="M19 34.8334C10.2553 34.8334 3.16669 27.7448 3.16669 19C3.16669 10.2553 10.2553 3.16669 19 3.16669C27.7448 3.16669 34.8334 10.2553 34.8334 19C34.8334 27.7448 27.7448 34.8334 19 34.8334Z" stroke="#E61D4E" stroke-width="1.5" stroke-linecap="round" stroke-linejoin="round"/>
<path d="M26.125 22.9584C26.125 22.9584 23.75 26.125 19 26.125C14.25 26.125 11.875 22.9584 11.875 22.9584" stroke="#E61D4E" stroke-width="1.5" stroke-linecap="round" stroke-linejoin="round"/>
<path d="M24.5417 14.25C24.3317 14.25 24.1304 14.1666 23.9819 14.0181C23.8334 13.8697 23.75 13.6683 23.75 13.4584C23.75 13.2484 23.8334 13.047 23.9819 12.8986C24.1304 12.7501 24.3317 12.6667 24.5417 12.6667C24.7517 12.6667 24.953 12.7501 25.1015 12.8986C25.2499 13.047 25.3334 13.2484 25.3334 13.4584C25.3334 13.6683 25.2499 13.8697 25.1015 14.0181C24.953 14.1666 24.7517 14.25 24.5417 14.25ZM13.4584 14.25C13.2484 14.25 13.047 14.1666 12.8986 14.0181C12.7501 13.8697 12.6667 13.6683 12.6667 13.4584C12.6667 13.2484 12.7501 13.047 12.8986 12.8986C13.047 12.7501 13.2484 12.6667 13.4584 12.6667C13.6683 12.6667 13.8697 12.7501 14.0181 12.8986C14.1666 13.047 14.25 13.2484 14.25 13.4584C14.25 13.6683 14.1666 13.8697 14.0181 14.0181C13.8697 14.1666 13.6683 14.25 13.4584 14.25Z" fill="#E61D4E" stroke="#E61D4E" stroke-width="1.5" stroke-linecap="round" stroke-linejoin="round"/>
</svg>
