<svg width="27" height="15" viewBox="0 0 27 15" fill="none" xmlns="http://www.w3.org/2000/svg">
<path d="M1.80005 6.5C1.24776 6.5 0.800049 6.94772 0.800049 7.5C0.800049 8.05229 1.24776 8.5 1.80005 8.5L1.80005 6.5ZM25.9072 8.20711C26.2977 7.81659 26.2977 7.18342 25.9072 6.7929L19.5432 0.428936C19.1527 0.0384118 18.5195 0.0384117 18.129 0.428936C17.7385 0.81946 17.7385 1.45263 18.129 1.84315L23.7858 7.5L18.129 13.1569C17.7385 13.5474 17.7385 14.1805 18.129 14.5711C18.5195 14.9616 19.1527 14.9616 19.5432 14.5711L25.9072 8.20711ZM1.80005 8.5L25.2 8.5L25.2 6.5L1.80005 6.5L1.80005 8.5Z" fill="#FCFAFA"/>
</svg>
