<svg width="58" height="55" viewBox="0 0 58 55" fill="none" xmlns="http://www.w3.org/2000/svg">
<path d="M55.3035 19.448L38.443 16.9977L30.9059 1.71758C30.7 1.29922 30.3613 0.960547 29.943 0.754688C28.8938 0.236719 27.6188 0.66836 27.0941 1.71758L19.557 16.9977L2.69649 19.448C2.23164 19.5145 1.80664 19.7336 1.48125 20.0656C1.08787 20.4699 0.871103 21.0139 0.878574 21.578C0.886045 22.142 1.11715 22.6801 1.5211 23.0738L13.7199 34.9672L10.8379 51.7613C10.7703 52.152 10.8135 52.5538 10.9627 52.9211C11.1118 53.2885 11.3609 53.6067 11.6817 53.8397C12.0025 54.0727 12.3822 54.2111 12.7776 54.2393C13.1731 54.2675 13.5685 54.1843 13.9191 53.9992L29 46.0703L44.0809 53.9992C44.4926 54.2184 44.9707 54.2914 45.4289 54.2117C46.5844 54.0125 47.3613 52.9168 47.1621 51.7613L44.2801 34.9672L56.4789 23.0738C56.8109 22.7484 57.0301 22.3234 57.0965 21.8586C57.2758 20.6965 56.4656 19.6207 55.3035 19.448ZM39.1469 33.2937L41.5441 47.259L29 40.6715L16.4559 47.2656L18.8531 33.3004L8.70625 23.4059L22.7313 21.3672L29 8.66367L35.2688 21.3672L49.2938 23.4059L39.1469 33.2937Z" fill="url(#paint0_linear_153_449)"/>
<defs>
<linearGradient id="paint0_linear_153_449" x1="28.9999" y1="0.535522" x2="28.9999" y2="54.2447" gradientUnits="userSpaceOnUse">
<stop stop-color="#E61D4E"/>
<stop offset="1" stop-color="#C9214A"/>
</linearGradient>
</defs>
</svg>
